<svg width="64px" height="64px" viewBox="-3.12 -3.12 30.24 30.24" xmlns="http://www.w3.org/2000/svg" fill="#ffffff" stroke="#ffffff">

<g id="SVGRepo_bgCarrier" stroke-width="0" transform="translate(0,0), scale(1)">

<path transform="translate(-3.12, -3.12), scale(1.8900000000000001)" fill="#0008ff" d="M9.166.33a2.25 2.25 0 00-2.332 0l-5.25 3.182A2.25 2.25 0 00.5 5.436v5.128a2.25 2.25 0 001.084 1.924l5.25 3.182a2.25 2.25 0 002.332 0l5.25-3.182a2.25 2.25 0 001.084-1.924V5.436a2.25 2.25 0 00-1.084-1.924L9.166.33z" strokewidth="0"/>

</g>

<g id="SVGRepo_tracerCarrier" stroke-linecap="round" stroke-linejoin="round" stroke="#CCCCCC" stroke-width="0.9120000000000001"/>

<g id="SVGRepo_iconCarrier"> <title/> <g id="Complete"> <g id="Code"> <g> <polyline data-name="Right" fill="none" id="Right-2" points="15.5 7 20.5 12 15.5 17" stroke="#ffffff" stroke-linecap="round" stroke-linejoin="round" stroke-width="2"/> <polyline data-name="Left" fill="none" id="Left-2" points="8.5 7 3.5 12 8.5 17" stroke="#ffffff" stroke-linecap="round" stroke-linejoin="round" stroke-width="2"/> </g> </g> </g> </g>

</svg>